<svg id="Layer_1" data-name="Layer 1" xmlns="http://www.w3.org/2000/svg" viewBox="0 0 191 82"><defs><style>.cls-1{font-size:22.96px;font-family:MyriadPro-Bold, Myriad Pro;}.cls-1,.cls-9{fill:#b71c1c;}.cls-2{font-weight:700;}.cls-3,.cls-4,.cls-6,.cls-7,.cls-8{font-size:16.84px;}.cls-3,.cls-4,.cls-5,.cls-6,.cls-7,.cls-8{font-family:MyriadPro-Regular, Myriad Pro;}.cls-4{letter-spacing:-0.08em;}.cls-6{letter-spacing:0em;}.cls-7{letter-spacing:0em;}.cls-8{letter-spacing:-0.08em;}</style></defs><title>logo</title><text class="cls-1" transform="translate(79.65 19.78)"><tspan class="cls-2">S</tspan><tspan class="cls-3" x="12.4" y="0">HI</tspan><tspan class="cls-4" x="27.4" y="0">F</tspan><tspan class="cls-3" x="34.28" y="0">A</tspan><tspan class="cls-5" x="44.59" y="0"> </tspan><tspan class="cls-2" x="49.45" y="0">S</tspan><tspan class="cls-6" x="61.85" y="0">OCIAL</tspan><tspan class="cls-5" x="105.48" y="0"> </tspan><tspan class="cls-2" x="0" y="27.55">W</tspan><tspan class="cls-3" x="20.39" y="27.55">EL</tspan><tspan class="cls-4" x="36.61" y="27.55">F</tspan><tspan class="cls-7" x="43.5" y="27.55">ARE</tspan><tspan class="cls-5" x="71.14" y="27.55"> </tspan><tspan class="cls-2" x="0" y="55.1">A</tspan><tspan class="cls-3" x="15.06" y="55.1">SSOCI</tspan><tspan class="cls-8" x="57.05" y="55.1">A</tspan><tspan class="cls-3" x="66.05" y="55.1">TION</tspan></text><g id="embelem"><path class="cls-9" d="M41.6,63.06A28.28,28.28,0,0,1,34,7.52,33.87,33.87,0,1,0,69.9,41.33a34.25,34.25,0,0,0-.18-3.47A28.3,28.3,0,0,1,41.6,63.06Z"/><rect class="cls-9" x="26.72" y="17.82" width="32.05" height="4.31" transform="translate(-4.3 16.37) rotate(-20.67)"/><rect class="cls-9" x="30.39" y="26.21" width="31.69" height="4.37" transform="translate(-7.16 18.74) rotate(-21.31)"/><rect class="cls-9" x="34.01" y="34.55" width="31.88" height="4.42" transform="translate(-9.95 20.67) rotate(-21.31)"/></g></svg>